<?xml version="1.0" standalone="no"?>
<!DOCTYPE svg PUBLIC "-//W3C//DTD SVG 20010904//EN"
 "http://www.w3.org/TR/2001/REC-SVG-20010904/DTD/svg10.dtd">
<svg version="1.0" xmlns="http://www.w3.org/2000/svg"
 width="400.000000pt" height="400.000000pt" viewBox="0 0 400.000000 400.000000"
 preserveAspectRatio="xMidYMid meet">
<metadata>
Created by potrace 1.14, written by Peter Selinger 2001-2017
</metadata>
<g transform="translate(0.000000,400.000000) scale(0.100000,-0.100000)"
fill="#000000" stroke="none">
<path d="M1169 3838 c-124 -59 -197 -93 -259 -121 -30 -14 -104 -48 -165 -77
-60 -29 -141 -67 -180 -85 -38 -18 -119 -56 -178 -84 -60 -28 -113 -51 -118
-51 -5 0 -9 -389 -9 -950 0 -571 4 -950 9 -950 8 0 83 -34 326 -150 130 -62
265 -125 340 -160 39 -18 126 -59 194 -92 l124 -59 36 17 c20 9 92 44 161 77
219 104 304 144 360 170 30 13 116 54 190 89 74 35 159 75 188 88 28 14 52 27
52 31 0 3 -24 16 -52 29 -29 13 -107 49 -173 80 -66 32 -147 70 -180 85 -33
15 -114 54 -180 85 -66 32 -160 77 -210 100 -49 23 -114 53 -142 67 l-53 25 0
472 1 471 42 19 c43 20 194 91 372 176 55 26 132 62 170 80 103 48 229 107
323 152 l83 41 -28 13 c-15 7 -84 40 -153 72 -69 33 -156 74 -195 92 -38 18
-108 51 -155 72 -176 83 -296 139 -325 153 -16 7 -53 25 -81 39 l-50 24 -85
-40z"/>
<path d="M2720 2925 c-14 -8 -74 -38 -135 -66 -215 -100 -325 -152 -530 -249
-159 -76 -269 -127 -285 -132 -10 -4 -1 -12 25 -23 38 -16 144 -66 428 -203
70 -34 130 -62 132 -62 3 0 83 -38 178 -84 95 -46 182 -86 195 -90 l22 -7 0
-475 0 -475 -87 -41 c-131 -61 -268 -125 -358 -168 -44 -21 -116 -55 -160 -75
-267 -124 -375 -177 -380 -185 -2 -3 29 -21 68 -39 163 -76 227 -106 332 -156
61 -29 151 -72 200 -95 50 -23 124 -58 165 -77 41 -19 108 -51 147 -70 l73
-34 37 20 c21 11 72 35 113 54 166 77 231 107 355 167 193 92 239 113 368 174
l117 55 0 945 c0 810 -2 946 -14 946 -8 0 -27 7 -43 15 -28 14 -310 149 -388
184 -125 58 -311 146 -474 225 -41 20 -75 36 -75 36 -1 0 -12 -7 -26 -15z"/>
</g>
</svg>
